<?xml version="1.0" standalone="no"?><!DOCTYPE svg PUBLIC "-//W3C//DTD SVG 1.1//EN" "http://www.w3.org/Graphics/SVG/1.1/DTD/svg11.dtd"><svg t="1549698588586" class="icon" style="" viewBox="0 0 1024 1024" version="1.1" xmlns="http://www.w3.org/2000/svg" p-id="1178" xmlns:xlink="http://www.w3.org/1999/xlink" width="200" height="200"><defs><style type="text/css"></style></defs><path d="M351.418182 502.690909h286.254545V977.454545H351.418182z" fill="#972EFB" p-id="1179"></path><path d="M877.381818 423.563636h-44.218182v467.781819c0 6.981818-4.654545 11.636364-11.636363 11.636363h-20.945455c-6.981818 0-11.636364-4.654545-11.636363-11.636363V276.945455L516.654545 37.236364 230.4 274.618182v614.4c0 6.981818-4.654545 11.636364-11.636364 11.636363h-18.618181c-6.981818 0-11.636364-4.654545-11.636364-11.636363v-465.454546H144.290909c-67.490909 0-128 44.218182-130.327273 132.654546v302.545454c0 72.145455 58.181818 128 128 130.327273h735.418182c72.145455 0 130.327273-58.181818 130.327273-130.327273v-302.545454c0-72.145455-58.181818-130.327273-130.327273-132.654546zM619.054545 900.654545h-216.436363V609.745455c0-53.527273 44.218182-97.745455 97.745454-97.745455h20.945455c53.527273 0 97.745455 44.218182 97.745454 97.745455v290.90909z" fill="#DE4FF6" p-id="1180"></path><path d="M879.709091 1003.054545H144.290909c-39.563636 0-74.472727-16.290909-102.4-41.890909S0 896 0 856.436364v-302.545455c0-46.545455 16.290909-83.781818 44.218182-111.709091 25.6-23.272727 60.509091-37.236364 100.072727-37.236363h44.218182c9.309091 0 16.290909 6.981818 16.290909 16.290909V884.363636h11.636364V274.618182c0-4.654545 2.327273-9.309091 4.654545-11.636364L505.018182 25.6c6.981818-4.654545 13.963636-4.654545 20.945454 0l274.618182 239.709091c2.327273 2.327273 4.654545 6.981818 4.654546 11.636364V884.363636h11.636363V423.563636c0-9.309091 6.981818-16.290909 16.290909-16.290909h44.218182c39.563636 0 74.472727 16.290909 102.4 44.218182 27.927273 27.927273 41.890909 65.163636 44.218182 102.4v302.545455c0 81.454545-65.163636 146.618182-144.290909 146.618181zM30.254545 556.218182v302.545454c0 30.254545 11.636364 58.181818 32.581819 79.127273 20.945455 20.945455 48.872727 32.581818 79.127272 32.581818h735.418182c62.836364 0 114.036364-51.2 114.036364-114.036363v-302.545455c0-30.254545-11.636364-60.509091-34.909091-81.454545-20.945455-20.945455-51.2-34.909091-81.454546-34.909091h-27.927272v451.490909c0 13.963636-11.636364 25.6-25.6 25.6h-20.945455c-13.963636 0-25.6-11.636364-25.6-25.6v-605.090909L516.654545 58.181818l-267.636363 223.418182v607.418182c0 13.963636-11.636364 25.6-25.6 25.6h-23.272727c-13.963636 0-25.6-11.636364-25.6-25.6V437.527273H144.290909c-30.254545 0-58.181818 9.309091-79.127273 27.927272-20.945455 23.272727-32.581818 53.527273-34.909091 90.763637z m588.8 360.727273h-216.436363c-9.309091 0-16.290909-6.981818-16.290909-16.29091V609.745455c0-62.836364 51.2-111.709091 111.709091-111.709091h20.945454c62.836364 0 111.709091 51.2 111.709091 111.709091v290.90909c4.654545 9.309091-2.327273 16.290909-11.636364 16.29091zM418.909091 884.363636h186.181818V609.745455c0-44.218182-37.236364-81.454545-81.454545-81.454546h-20.945455c-44.218182 0-81.454545 37.236364-81.454545 81.454546V884.363636z" fill="#B258FB" p-id="1181"></path><path d="M290.909091 297.890909c-6.981818 0-13.963636 6.981818-13.963636 13.963636v195.49091c0 6.981818 6.981818 13.963636 13.963636 13.963636s13.963636-6.981818 13.963636-13.963636v-195.49091c0-6.981818-4.654545-13.963636-13.963636-13.963636z" fill="#FCFCFF" p-id="1182"></path><path d="M290.909091 553.890909m-13.963636 0a13.963636 13.963636 0 1 0 27.927272 0 13.963636 13.963636 0 1 0-27.927272 0Z" fill="#FCFCFF" p-id="1183"></path></svg>