<?xml version="1.0" standalone="no"?><!DOCTYPE svg PUBLIC "-//W3C//DTD SVG 1.1//EN" "http://www.w3.org/Graphics/SVG/1.1/DTD/svg11.dtd"><svg t="1549711606379" class="icon" style="" viewBox="0 0 1024 1024" version="1.1" xmlns="http://www.w3.org/2000/svg" p-id="1798" xmlns:xlink="http://www.w3.org/1999/xlink" width="200" height="200"><defs><style type="text/css"></style></defs><path d="M512 512m-512 0a512 512 0 1 0 1024 0 512 512 0 1 0-1024 0Z" fill="#FFFFFF" p-id="1799"></path><path d="M483.264 578.368l108.88-316.176 43.872 15.112-108.88 316.176z" fill="#333333" p-id="1800"></path><path d="M536.8 612.8L464 588l118.4-344.8 72.8 24.8-118.4 344.8z m-33.6-44l14.4 4.8L616 287.2l-14.4-4.8-98.4 286.4z" fill="#333333" p-id="1801"></path><path d="M614.4 262.4m-119.2 0a119.2 119.2 0 1 0 238.4 0 119.2 119.2 0 1 0-238.4 0Z" fill="#FF7400" p-id="1802"></path><path d="M614.4 396.8c-74.4 0-134.4-60-134.4-134.4S540 128 614.4 128s134.4 60 134.4 134.4-60 134.4-134.4 134.4z m0-238.4c-56.8 0-104 46.4-104 104 0 56.8 46.4 104 104 104s104-46.4 104-104c0-56.8-47.2-104-104-104z" fill="#333333" p-id="1803"></path><path d="M832.8 786.4C830.4 611.2 688 469.6 512 469.6c-176.8 0-320 142.4-320.8 319.2 0 0.8 0.8 1.6 2.4 3.2 3.2 4 10.4 6.4 22.4 6.4h596c8 0 14.4-3.2 20.8-12z" fill="#FFB900" p-id="1804"></path><path d="M812 814.4H216c-16 0-26.4-4-33.6-12-2.4-2.4-4-5.6-4.8-7.2L176 792v-3.2c0.8-184.8 151.2-334.4 336-334.4 183.2 0 333.6 148.8 336 331.2v4.8l-2.4 4c-8.8 12.8-20 20-33.6 20z m-604.8-32c1.6 0.8 4.8 0.8 8.8 0.8h596c1.6 0 3.2 0 5.6-2.4-4.8-164-140.8-296-304.8-296-166.4 0-301.6 132.8-305.6 297.6z" fill="#333333" p-id="1805"></path></svg>