<?xml version="1.0" standalone="no"?><!DOCTYPE svg PUBLIC "-//W3C//DTD SVG 1.1//EN" "http://www.w3.org/Graphics/SVG/1.1/DTD/svg11.dtd"><svg t="1549699750978" class="icon" style="" viewBox="0 0 1024 1024" version="1.1" xmlns="http://www.w3.org/2000/svg" p-id="1682" xmlns:xlink="http://www.w3.org/1999/xlink" width="200" height="200"><defs><style type="text/css"></style></defs><path d="M579.936787 729.763612l16.450846 0 0 2.837076-16.450846 0L579.936787 729.763612zM652.315514 712.205517l4.074238 0 0 13.15708-4.074238 0L652.315514 712.205517zM665.145815 712.119575l4.11521 0 0 13.243021-4.11521 0L665.145815 712.119575zM579.936787 735.151959l16.450846 0 0 2.837076-16.450846 0L579.936787 735.151959zM222.694797 441.043165l573.019093 0 0 393.965891L222.694797 835.009056 222.694797 441.043165zM849.441463 893.981872 168.976018 893.981872 168.976018 385.96111l680.465444 0L849.441463 893.981872 849.441463 893.981872zM189.938206 873.015288l638.503495 0L828.441701 406.927295 189.938206 406.927295 189.938206 873.015288 189.938206 873.015288zM741.431893 371.881257 541.704708 212.108982l15.50149-19.362872 224.338299 179.135146L741.431893 371.881257zM276.968999 371.881257l199.729983-159.772274-15.483902-19.362872-224.358885 179.135146L276.968999 371.881257zM545.004471 166.598838c0 19.799576-16.031131 35.82611-35.801726 35.82611-19.783587 0-35.82651-16.026534-35.82651-35.82611 0-19.766598 16.043123-35.809721 35.82651-35.809721C528.97334 130.789317 545.004471 146.83244 545.004471 166.598838z" p-id="1683"></path></svg>