<?xml version="1.0" standalone="no"?><!DOCTYPE svg PUBLIC "-//W3C//DTD SVG 1.1//EN" "http://www.w3.org/Graphics/SVG/1.1/DTD/svg11.dtd"><svg t="1549711620026" class="icon" style="" viewBox="0 0 1024 1024" version="1.1" xmlns="http://www.w3.org/2000/svg" p-id="2044" xmlns:xlink="http://www.w3.org/1999/xlink" width="200" height="200"><defs><style type="text/css"></style></defs><path d="M447.073268 563.122995l-105.425721 7.64082 0-49.614761L148.513892 756.760309l153.284273-28.06797 2.533282 155.788975 218.465281-266.527694-13.020172-10.66377L447.073268 563.122995zM682.236228 524.64868l0 50.228345-105.426321-7.65481-17.773949 12.516514-55.851932 42.083467 207.419769 275.229794 8.879979-155.571123 152.017532 34.319531L682.236228 524.64868zM743.535467 437.690438l-77.193463 38.596831 0 77.193463-90.376525-6.550559-63.99641 45.065246-64.010401-45.065246-90.376525 6.550559 0-77.193463-77.166481-38.596831 38.596831-77.180072-38.596831-78.732419 77.166481-37.043684L357.582143 167.55419l90.376525 6.56395 64.010401-45.092827 63.99641 45.079236 90.376525-6.550559 0 77.180072 77.193463 38.514687-38.596831 77.261417L743.535467 437.690438 743.535467 437.690438zM688.229165 418.977725l-29.3511-58.644039 29.3511-58.712593-58.67302-29.267557L629.556145 213.709897l-68.666244 4.97063-48.634826-34.252177-48.620435 34.252177-68.695225-4.97063 0 58.64364-58.644039 28.150914 29.349501 59.829236-29.349501 58.644039 58.644039 29.335511 0 58.644639 68.695225-4.98462 48.620435 34.252177 48.634826-34.252177 68.666244 4.98462 0-58.644639L688.229165 418.977725 688.229165 418.977725zM633.070562 400.796052l-40.285486 20.156734 0 40.285486-47.178013-3.418682-33.40715 23.534044-33.40735-23.534044-47.176814 3.418682 0-40.285486-40.285486-20.156734 20.142743-40.285686-20.142743-41.088542 40.285486-19.325897 0-40.299077 47.176814 3.418083 33.40735-23.520453 33.40715 23.520453 47.178013-3.418083 0 40.299077 40.285486 20.074789-20.143343 40.33945L633.070562 400.796052z" p-id="2045"></path></svg>